<?xml version="1.0" encoding="UTF-8"?>
<svg width="26px" height="20px" viewBox="0 0 26 20" version="1.1" xmlns="http://www.w3.org/2000/svg" xmlns:xlink="http://www.w3.org/1999/xlink">
    <title>Uniswipe</title>
    <g id="Page-1" stroke="none" stroke-width="1" fill="none" fill-rule="evenodd" stroke-linecap="round" stroke-linejoin="round">
        <g id="University" transform="translate(1, 1)" stroke="#000000" stroke-width="2">
            <circle id="Oval" cx="10" cy="6" r="1"></circle>
            <path d="M24,4 L16,4 L10,0 L4,4 L0,4 L0,16 C0,17.1045695 0.8954305,18 2,18 L19,18" id="Path"></path>
            <line x1="4" y1="13" x2="4" y2="13.01" id="Path"></line>
            <line x1="4" y1="9" x2="4" y2="9.01" id="Path"></line>
            <line x1="12" y1="15" x2="20" y2="15" id="Path"></line>
            <line x1="16" y1="11" x2="21" y2="11" id="Path"></line>
            <line x1="17" y1="7" x2="23" y2="7" id="Path"></line>
            <path d="M11.5,11.5 C11.5,11.5 11.1045695,11 10,11 C8.8954305,11 8,11.8954305 8,13 L8,18" id="Path"></path>
        </g>
    </g>
</svg>